<svg width="88" height="24" viewBox="0 0 88 24" fill="none" xmlns="http://www.w3.org/2000/svg">
<path fill-rule="evenodd" clip-rule="evenodd" d="M0.762573 14.6758V0.940674H2.07962C3.15263 0.940674 4.02248 1.80845 4.02248 2.87891V8.98593C6.13316 7.10728 7.9281 6.35526 10.3204 6.30701C14.9087 6.21337 18.8912 9.61309 19.2695 14.1763C19.7218 19.6278 15.7479 23.7313 10.5707 23.7313C4.88723 23.7313 0.762573 20.2152 0.762573 14.6758ZM3.96844 15.7542C4.28988 18.592 7.00647 20.936 9.87097 20.9815C13.6031 21.0382 16.1461 18.6119 16.1461 15.022C16.1461 11.4321 13.66 9.06255 10.0331 9.06255C6.15593 9.05404 3.52753 11.8635 3.96844 15.7542Z" fill="white"/>
<path fill-rule="evenodd" clip-rule="evenodd" d="M24.7084 6.65025V9.09646C26.7593 6.8262 27.974 6.21606 30.3748 6.21606C31.0732 6.21682 31.7704 6.2728 32.4599 6.3835V9.63281C31.7241 9.43105 30.9643 9.32985 30.2013 9.332C28.4632 9.332 27.004 9.89957 25.9344 10.9723C24.9957 11.9116 24.7169 12.6466 24.7169 14.1223V23.1693H21.3375V6.65025H24.7084Z" fill="white"/>
<path fill-rule="evenodd" clip-rule="evenodd" d="M33.262 12.1131C33.4355 10.504 33.7484 9.63281 34.4425 8.79565C35.8335 7.09295 38.3367 6.21606 41.8811 6.21606C44.6972 6.21606 46.7482 6.65309 48.1733 7.58958C49.3566 8.35863 49.8431 9.49944 49.8431 11.5086V18.8444C49.8431 20.4535 50.2612 21.021 51.4076 20.9898C51.6637 20.9808 51.9191 20.9581 52.1728 20.9217V23.1324C51.6029 23.3267 51.0026 23.417 50.4006 23.3991C48.2814 23.3991 47.3085 22.7635 46.6486 20.9189C44.5635 22.8287 42.4073 23.6318 39.3152 23.6318C35.1792 23.6318 32.6418 21.756 32.6418 18.7054C32.6237 16.9657 33.6496 15.3837 35.2475 14.687C36.4991 14.1506 37.2643 13.9832 40.8428 13.6143C43.9007 13.3135 44.4241 13.2454 45.2917 12.9758C46.2304 12.675 46.6486 12.1727 46.6486 11.3355C46.6486 9.55903 45.1552 8.75592 42.0261 8.75592C39.0678 8.75592 37.5431 9.34052 36.9315 10.8332C36.6286 11.5965 35.8912 12.0997 35.0683 12.1046L33.262 12.1131ZM46.6315 14.9282C44.4876 15.5503 42.286 15.9544 40.0605 16.1343C37.0367 16.4351 36.098 17.0055 36.098 18.5124C36.098 20.1867 37.489 21.0664 40.234 21.0664C42.4926 21.0664 44.1965 20.4988 45.414 19.3921C46.3869 18.4868 46.6315 17.8511 46.6315 16.2705V14.9282Z" fill="white"/>
<path fill-rule="evenodd" clip-rule="evenodd" d="M60.3312 23.1665H59.4607C58.6939 23.1714 57.9925 22.7365 57.6573 22.0484L50.3666 6.65036H52.3919C53.5721 6.64096 54.6466 7.32772 55.1313 8.40131L59.9955 19.4688L65.0219 8.35874C65.5138 7.30207 66.5793 6.62968 67.747 6.63901H69.5875L62.1261 22.0655C61.7874 22.7441 61.0911 23.1713 60.3312 23.1665Z" fill="white"/>
<path fill-rule="evenodd" clip-rule="evenodd" d="M71.8716 15.8648C72.2187 19.0488 74.7162 21.024 78.4398 21.024C80.5533 21.024 82.1378 20.3968 83.1192 19.1453C83.6916 18.4277 84.5609 18.0097 85.4802 18.0102H87.4401C85.7333 21.7618 82.6782 23.6064 78.124 23.6064C72.4349 23.6064 68.6003 20.1556 68.6003 14.9964C68.6003 9.83723 72.5287 6.21899 78.1952 6.21899C82.2942 6.21899 85.5911 8.06075 86.9195 11.1455C87.5112 12.5644 87.753 13.8244 87.753 15.8676L71.8716 15.8648ZM84.3139 13.3107C83.5487 10.3963 81.2901 8.75319 78.161 8.75319C75.032 8.75319 72.7734 10.3963 71.9741 13.3107H84.3139Z" fill="white"/>
</svg>
